<svg xmlns="http://www.w3.org/2000/svg" width="128" height="128" fill="none" viewBox="0 0 128 128" id="sql">
  <path fill="url(#a)" fill-rule="evenodd" d="M44 23.5C37.6487 23.5 32.5 28.6487 32.5 35V54.5C32.5 55.8807 33.6193 57 35 57C36.3807 57 37.5 55.8807 37.5 54.5V35C37.5 31.4101 40.4101 28.5 44 28.5H73.5V41C73.5 44.0376 75.9624 46.5 79 46.5H90.5V93C90.5 96.5899 87.5899 99.5 84 99.5H44C40.4101 99.5 37.5 96.5899 37.5 93V90C37.5 88.6193 36.3807 87.5 35 87.5C33.6193 87.5 32.5 88.6193 32.5 90V93C32.5 99.3513 37.6487 104.5 44 104.5H84C90.3513 104.5 95.5 99.3513 95.5 93V44.9654C95.5 42.5639 94.5905 40.2516 92.9546 38.4936L89.881 35.1908L89.8419 35.1488L89.8009 35.1086L80.7286 26.2157C78.9528 24.475 76.5652 23.5 74.0785 23.5H44ZM88.9222 41.5L86.2599 38.6391L78.5 31.0327V41C78.5 41.2761 78.7239 41.5 79 41.5H88.9222ZM36.16 75.5998C35.9867 75.4398 35.84 75.3132 35.72 75.2198C35.5467 75.0598 35.4067 74.9798 35.3 74.9798C35.2067 74.9798 35.0933 75.0265 34.96 75.1198L33.22 76.7798C33.0733 76.9265 33 77.0532 33 77.1598C33 77.2665 33.0733 77.3998 33.22 77.5598L33.26 77.5998C33.2733 77.5998 33.2867 77.6132 33.3 77.6398L33.34 77.6598C33.66 78.0198 34.0267 78.3532 34.44 78.6598C34.8533 78.9665 35.2933 79.2332 35.76 79.4598C36.24 79.6865 36.7333 79.8665 37.24 79.9998C37.7467 80.1332 38.26 80.1998 38.78 80.1998C39.5933 80.1998 40.3533 80.0865 41.06 79.8598C41.7667 79.6198 42.38 79.2932 42.9 78.8798C43.42 78.4532 43.8267 77.9465 44.12 77.3598C44.4267 76.7598 44.58 76.0932 44.58 75.3598C44.58 74.6665 44.46 74.0798 44.22 73.5998C43.98 73.1065 43.64 72.6865 43.2 72.3398C42.7733 71.9798 42.26 71.6732 41.66 71.4198C41.06 71.1665 40.4067 70.9198 39.7 70.6798C38.9667 70.4398 38.4133 70.2198 38.04 70.0198C37.6667 69.8198 37.48 69.5332 37.48 69.1598C37.48 68.7732 37.64 68.5065 37.96 68.3598C38.28 68.2132 38.66 68.1398 39.1 68.1398C39.5267 68.1398 39.9267 68.2532 40.3 68.4798C40.6867 68.6932 41.0133 68.9132 41.28 69.1398L41.38 69.2198C41.4733 69.2998 41.5533 69.3665 41.62 69.4198C41.7 69.4732 41.7867 69.4998 41.88 69.4998C42 69.4998 42.1133 69.4465 42.22 69.3398L43.76 67.6998C43.9333 67.4998 44.02 67.3398 44.02 67.2198C44.02 67.0332 43.8533 66.7998 43.52 66.5198C43.1867 66.2398 42.7933 65.9665 42.34 65.6998C41.8067 65.3932 41.2533 65.1732 40.68 65.0398C40.12 64.9065 39.54 64.8398 38.94 64.8398C38.14 64.8398 37.4133 64.9398 36.76 65.1398C36.1067 65.3265 35.5467 65.5998 35.08 65.9598C34.6267 66.3198 34.2733 66.7532 34.02 67.2598C33.7667 67.7665 33.64 68.3332 33.64 68.9598C33.64 70.1332 34.0333 71.0998 34.82 71.8598C35.62 72.6198 36.8267 73.2798 38.44 73.8398C38.6267 73.9065 38.84 73.9865 39.08 74.0798C39.3333 74.1598 39.5667 74.2665 39.78 74.3998C40.0067 74.5198 40.2 74.6598 40.36 74.8198C40.52 74.9798 40.6 75.1665 40.6 75.3798C40.6 75.7532 40.4733 76.0798 40.22 76.3598C39.98 76.6398 39.5133 76.7798 38.82 76.7798C38.46 76.7798 38.1067 76.7198 37.76 76.5998C37.4267 76.4665 37.0933 76.2865 36.76 76.0598C36.5333 75.8998 36.3333 75.7465 36.16 75.5998ZM46.945 69.6198C46.545 70.5398 46.345 71.5332 46.345 72.5998C46.345 73.4932 46.485 74.3465 46.765 75.1598C47.045 75.9598 47.4317 76.6865 47.925 77.3398C48.4317 77.9932 49.0317 78.5465 49.725 78.9998C50.4183 79.4532 51.1783 79.7798 52.005 79.9798V82.6998C52.005 82.9932 52.1517 83.1398 52.445 83.1398H55.405C55.725 83.1398 55.885 82.9932 55.885 82.6998V79.9998C56.725 79.7998 57.4917 79.4732 58.185 79.0198C58.8917 78.5665 59.4983 78.0132 60.005 77.3598C60.5117 76.7065 60.905 75.9732 61.185 75.1598C61.4783 74.3465 61.625 73.4932 61.625 72.5998C61.625 71.5332 61.425 70.5398 61.025 69.6198C60.625 68.6865 60.0783 67.8732 59.385 67.1798C58.6917 66.4865 57.8783 65.9398 56.945 65.5398C56.025 65.1398 55.0383 64.9398 53.985 64.9398C52.9317 64.9398 51.9383 65.1398 51.005 65.5398C50.0717 65.9398 49.2583 66.4865 48.565 67.1798C47.885 67.8732 47.345 68.6865 46.945 69.6198ZM50.485 74.1398C50.2983 73.6598 50.205 73.1398 50.205 72.5798C50.205 72.0332 50.2983 71.5198 50.485 71.0398C50.6717 70.5598 50.9317 70.1398 51.265 69.7798C51.5983 69.4198 51.9983 69.1398 52.465 68.9398C52.9317 68.7265 53.4383 68.6198 53.985 68.6198C54.5317 68.6198 55.0383 68.7265 55.505 68.9398C55.9717 69.1398 56.3717 69.4198 56.705 69.7798C57.0383 70.1398 57.2983 70.5598 57.485 71.0398C57.6717 71.5198 57.765 72.0332 57.765 72.5798C57.765 73.1398 57.6717 73.6598 57.485 74.1398C57.2983 74.6198 57.0383 75.0398 56.705 75.3998C56.3717 75.7465 55.9717 76.0265 55.505 76.2398C55.0383 76.4398 54.5317 76.5398 53.985 76.5398C53.4383 76.5398 52.9317 76.4398 52.465 76.2398C51.9983 76.0265 51.5983 75.7465 51.265 75.3998C50.9317 75.0398 50.6717 74.6198 50.485 74.1398ZM64.0163 79.5598V65.5998C64.0163 65.4532 64.0562 65.3465 64.1362 65.2798C64.2296 65.1998 64.3296 65.1598 64.4363 65.1598H67.4362C67.7162 65.1598 67.8562 65.3065 67.8562 65.5998V76.4598H73.4162C73.6962 76.4598 73.8363 76.6065 73.8363 76.8998V79.5598C73.8363 79.8532 73.6962 79.9998 73.4162 79.9998H64.4363C64.1562 79.9998 64.0163 79.8532 64.0163 79.5598Z" clip-rule="evenodd"></path>
  <defs>
    <linearGradient id="a" x1="64" x2="64" y1="23.5" y2="104.5" gradientUnits="userSpaceOnUse">
      <stop stop-color="#C1E000"></stop>
      <stop offset="1" stop-color="#8CAF00"></stop>
    </linearGradient>
  </defs>
</svg>
