<svg xmlns="http://www.w3.org/2000/svg" viewBox="0 0 99.998 100" width="73" height="83" xmlns:v="https://vecta.io/nano"><g fill="#156ba3"><path d="M2.456 62.32a11.87 11.87 0 0 0 1.732 1c.72.368 1.927.985 2.012 1.417a2.89 2.89 0 0 1-.197 1.688c-.248.533-.508.992-.733 1.387-.6 1.078-1.632 2.885-.092 4.143.36.333.982.815 1.548 1.25a4.2 4.2 0 0 0-.542 2.405 2.4 2.4 0 0 0 .988 1.638c.37.262.765.488 1.155.7.985.562 1.37.823 1.5 1.345.093.67.036 1.354-.167 2l-.25 1.333a9.93 9.93 0 0 0 .548 4.49 6.24 6.24 0 0 0 5.895 4.54 6.69 6.69 0 0 0 1.367-.145 126.78 126.78 0 0 0 14.05-4.205c3.755 2.203 6.126 8.903 6.745 11.418A1.67 1.67 0 0 0 39.634 100l41.83-.117a1.66 1.66 0 0 0 1.34-.682 1.67 1.67 0 0 0 .245-1.485 12.85 12.85 0 0 0-1.688-3.166 15.5 15.5 0 0 1-1.078-1.803c-.754-1.526-1.384-3.112-1.882-4.74a56.22 56.22 0 0 1-1.957-9.749c-.055-.606-.435-1.134-.992-1.377a1.67 1.67 0 0 0-2.315 1.784c.385 3.5 1.08 6.957 2.078 10.333a34.9 34.9 0 0 0 2.068 5.216 18.35 18.35 0 0 0 1.292 2.178l.112.167-37.796.108c-1.106-3.953-3.114-7.596-5.866-10.643l1.5-.525 2.4-.822c7.14-2.258 10.7-5.5 10.613-9.666.001-.444-.18-.87-.5-1.177s-.753-.47-1.197-.45a1.67 1.67 0 0 0-1.627 1.705c.04 1.715-1.365 4.216-8.293 6.408a134.21 134.21 0 0 0-2.477.852l-4.55 1.573h-.012a129.7 129.7 0 0 1-14.333 4.333 2.95 2.95 0 0 1-3.43-2.222 6.63 6.63 0 0 1-.392-2.973c.043-.35.123-.697.2-1.045a7.3 7.3 0 0 0 .145-3.548c-.486-1.53-1.612-2.77-3.085-3.406l-.347-.198c.18-.363.395-.708.642-1.03.28-.354.404-.807.344-1.254s-.3-.85-.662-1.12c-.4-.293-1.343-1-2.033-1.557l.25-.45c.262-.458.56-.992.852-1.608a6.25 6.25 0 0 0 .445-3.73c-.4-2.033-2.347-3.03-3.768-3.756-.478-.226-.936-.492-1.37-.795a7.09 7.09 0 0 1-1-.813c0-.252.27-.862 1.54-2.4a67.05 67.05 0 0 0 7.628-12.389 4.93 4.93 0 0 0 .645-2.255 5.83 5.83 0 0 0-2.435-4.166c-.675-.618-1.3-1.202-1.383-1.74.01-.395.1-.784.26-1.145.272-.715.585-1.415.9-2.117a24.32 24.32 0 0 0 1.63-4.395l.167-.7a41.73 41.73 0 0 1 1.363-4.92c1.314-3.626 3.348-6.95 5.98-9.768 3.188-3.373 8.206-5.76 14.94-7.098a108.33 108.33 0 0 1 15.636-2.253 35.54 35.54 0 0 1 7.845.445 1.67 1.67 0 0 0 1.89-1.363c.156-.893-.43-1.745-1.32-1.92a38.72 38.72 0 0 0-8.588-.49A111.18 111.18 0 0 0 33.91 2.37c-7.515 1.5-12.976 4.135-16.704 8.075a31.95 31.95 0 0 0-6.685 10.904c-.6 1.742-1.093 3.52-1.477 5.32l-.167.703c-.356 1.307-.833 2.578-1.425 3.796-.333.76-.68 1.52-.978 2.307a5.58 5.58 0 0 0-.442 2.788 6.36 6.36 0 0 0 2.43 3.721c.815.748 1.35 1.275 1.357 1.733-.06.254-.156.498-.285.725-1.997 4.206-4.444 8.183-7.3 11.86-1.205 1.468-2.467 3.18-2.198 4.9.353 1.327 1.226 2.453 2.42 3.125zm16.158-32.66l.167-.742a36.92 36.92 0 0 1 1.112-4.096 21.99 21.99 0 0 1 4.573-7.5 17.45 17.45 0 0 1 7.681-4.218 1.67 1.67 0 0 0 .679-2.829 1.67 1.67 0 0 0-1.648-.36 20.63 20.63 0 0 0-9.134 5.118 25.29 25.29 0 0 0-5.271 8.638 39.8 39.8 0 0 0-1.235 4.515l-.167.722a1.67 1.67 0 0 0 1.245 2 1.55 1.55 0 0 0 .378.043 1.67 1.67 0 0 0 1.621-1.292z"/><circle cx="15.002" cy="35.004" r="1.667"/></g><path d="M45 33.687c-.114 5.682 1.894 11.202 5.63 15.482a28.61 28.61 0 0 0 3.833 3.333c2.438 1.885 4.748 3.686 5.36 6.193a5 5 0 0 0-3.16 4.64v3.333a5 5 0 0 0 3.333 4.693v.307a6.67 6.67 0 0 0 6.666 6.666 6.67 6.67 0 0 0 6.666-6.666v-.307a5 5 0 0 0 3.333-4.693v-3.333a5 5 0 0 0-3.166-4.64c.612-2.5 2.923-4.308 5.36-6.193a28.74 28.74 0 0 0 3.833-3.333c3.74-4.28 5.75-9.8 5.638-15.482C88.28 21.683 78.662 11.9 66.66 11.672c-12 .238-21.618 10-21.664 22.015zm16.665 2.983H60a1.67 1.67 0 0 1-1.667-1.667A1.67 1.67 0 0 1 60 33.336c.92 0 1.667.746 1.667 1.667v1.667zm6.667 21.666H65V40.003h3.333v18.333zM66.666 75c-1.84 0-3.333-1.492-3.333-3.333H70C70 73.5 68.507 75 66.666 75zm6.666-8.332a1.67 1.67 0 0 1-1.667 1.667h-10a1.67 1.67 0 0 1-1.667-1.667v-3.333a1.67 1.67 0 0 1 1.667-1.667h10a1.67 1.67 0 0 1 1.667 1.667v3.333zm11.666-32.93a19.49 19.49 0 0 1-4.771 13.198 26.01 26.01 0 0 1-3.395 2.928 23.36 23.36 0 0 0-5.166 4.93v-14.79h1.667a5 5 0 1 0-5-5v1.667H65v-1.667a5 5 0 1 0-5 5h1.667v14.793a23.32 23.32 0 0 0-5.158-4.93 26.1 26.1 0 0 1-3.396-2.93 19.48 19.48 0 0 1-4.778-13.198c.167-10.156 8.553-18.734 18.332-18.734s18.173 8.58 18.33 18.735zm-13.332 2.93V35a1.67 1.67 0 0 1 1.667-1.667A1.67 1.67 0 0 1 75 35.001c0 .92-.746 1.667-1.667 1.667h-1.667zm21.664-1.664h5a1.67 1.67 0 0 0 1.667-1.667 1.67 1.67 0 0 0-1.667-1.667h-5a1.67 1.67 0 0 0-1.667 1.667 1.67 1.67 0 0 0 1.667 1.667zm-7.8-18.854c.443 0 .867-.175 1.18-.488l3.535-3.536c.433-.418.607-1.038.454-1.62s-.608-1.038-1.2-1.2-1.202.02-1.62.454l-3.536 3.535c-.478.476-.62 1.194-.363 1.817s.866 1.03 1.54 1.03zM66.666 8.338a1.67 1.67 0 0 0 1.667-1.667v-5A1.67 1.67 0 0 0 66.666.004 1.67 1.67 0 0 0 65 1.672v5c0 .92.746 1.666 1.666 1.666zM49 15.66a1.67 1.67 0 0 0 .489-1.179c0-.442-.176-.867-.5-1.18l-3.536-3.535c-.418-.433-1.038-.607-1.62-.454s-1.038.608-1.2 1.2.02 1.202.454 1.62l3.535 3.536a1.67 1.67 0 0 0 1.179.489c.442 0 .867-.176 1.18-.5zm-14 16a1.67 1.67 0 0 0-1.667 1.667A1.67 1.67 0 0 0 35 35.004h5a1.67 1.67 0 0 0 1.667-1.667A1.67 1.67 0 0 0 40 31.67h-5z" fill="#fa8503"/></svg>