<svg id="main_blue_icons" data-name="main blue icons" xmlns="http://www.w3.org/2000/svg" viewBox="0 0 70 70" width="73" height="83"><defs><style>.cls-1{fill:#fa8503;}.cls-2{fill:#156ba3;}</style></defs><title>dedicated team</title><g id="dedicated_team" data-name="dedicated team"><path class="cls-1" d="M63,38.5V36.17A1.18,1.18,0,0,0,64.17,35V28A1.17,1.17,0,0,0,63,26.83H56.7L56.47,26a21,21,0,0,0-2.38-5.7l-.46-.78L58.1,15a1.16,1.16,0,0,0,0-1.64l-5-5a1.17,1.17,0,0,0-1.63,0L47,12.88l-.78-.46A21.54,21.54,0,0,0,40.54,10l-.87-.22V3.5A1.18,1.18,0,0,0,38.5,2.33h-7A1.17,1.17,0,0,0,30.33,3.5V9.8l-.87.23a21,21,0,0,0-5.7,2.38l-.78.46L18.5,8.4a1.18,1.18,0,0,0-1.64,0l-5,5a1.13,1.13,0,0,0-.34.82,1.17,1.17,0,0,0,.34.82l4.48,4.48-.47.78A21.64,21.64,0,0,0,13.53,26l-.23.87H7A1.17,1.17,0,0,0,5.83,28v7A1.17,1.17,0,0,0,7,36.17V38.5A3.5,3.5,0,0,1,3.5,35V28A3.5,3.5,0,0,1,7,24.5h4.51a23.93,23.93,0,0,1,1.94-4.65l-3.2-3.2a3.48,3.48,0,0,1,0-4.94l4.95-5a3.58,3.58,0,0,1,4.94,0L23.35,10A24.26,24.26,0,0,1,28,8V3.5A3.5,3.5,0,0,1,31.5,0h7A3.5,3.5,0,0,1,42,3.5V8A23.59,23.59,0,0,1,46.64,10l3.21-3.21a3.58,3.58,0,0,1,4.94,0l5,4.95a3.5,3.5,0,0,1,0,4.94l-3.21,3.21a23.93,23.93,0,0,1,1.94,4.65H63A3.5,3.5,0,0,1,66.5,28v7A3.5,3.5,0,0,1,63,38.5Z"/><path class="cls-1" d="M51.33,31.5H49a14,14,0,0,0-28,0H18.67a16.33,16.33,0,0,1,32.66,0Z"/><path class="cls-2" d="M35,40.83a7,7,0,1,1,7-7A7,7,0,0,1,35,40.83Zm0-11.66a4.67,4.67,0,1,0,4.67,4.66A4.67,4.67,0,0,0,35,29.17Z"/><path class="cls-2" d="M54.83,45.5a7,7,0,1,1,7-7A7,7,0,0,1,54.83,45.5Zm0-11.67A4.67,4.67,0,1,0,59.5,38.5,4.67,4.67,0,0,0,54.83,33.83Z"/><path class="cls-2" d="M15.17,45.5a7,7,0,1,1,7-7A7,7,0,0,1,15.17,45.5Zm0-11.67a4.67,4.67,0,1,0,4.66,4.67A4.67,4.67,0,0,0,15.17,33.83Z"/><path class="cls-2" d="M65.41,48.49a10.39,10.39,0,0,0-5.91-1.82H50.17a9.68,9.68,0,0,0-1.7.15,10.18,10.18,0,0,0-2.85-3,3.84,3.84,0,0,0-.54-.35A10.44,10.44,0,0,0,39.67,42H30.33a10.4,10.4,0,0,0-8.8,4.82,9.68,9.68,0,0,0-1.7-.15H10.5a10.39,10.39,0,0,0-5.91,1.82A10.49,10.49,0,0,0,0,57.17v4.66a8.16,8.16,0,0,0,4.75,7.41A7.8,7.8,0,0,0,8.17,70H19.83V67.67H9.33V54.83H7V67.55a5.57,5.57,0,0,1-1.27-.42,5.86,5.86,0,0,1-3.4-5.3V57.17a8.23,8.23,0,0,1,3.58-6.76A8.07,8.07,0,0,1,10.5,49h9.33c.21,0,.41,0,.61,0a10.56,10.56,0,0,0-.61,3.47V64.17A5.85,5.85,0,0,0,25.67,70h3.5V51.33H26.83V67.67H25.67a3.5,3.5,0,0,1-3.5-3.5V52.5a8.16,8.16,0,0,1,8.16-8.17h9.34a8.17,8.17,0,0,1,4.25,1.2l.34.22a8.35,8.35,0,0,1,2.62,2.92,8.23,8.23,0,0,1,.95,3.83V64.17a3.5,3.5,0,0,1-3.5,3.5H43.17V51.33H40.83V70h3.5a5.85,5.85,0,0,0,5.84-5.83V52.5A10.56,10.56,0,0,0,49.56,49c.2,0,.4,0,.61,0H59.5a8,8,0,0,1,4.59,1.42,8.17,8.17,0,0,1,3.58,6.75v4.66a5.85,5.85,0,0,1-3.42,5.31,6.1,6.1,0,0,1-1.25.41V54.83H60.67V67.67H50.17V70H61.83a7.81,7.81,0,0,0,3.4-.75A8.18,8.18,0,0,0,70,61.83V57.17A10.5,10.5,0,0,0,65.41,48.49Z"/><path class="cls-2" d="M30.33,67.67h9.34V70H30.33V67.67Z"/></g></svg>