<svg xmlns="http://www.w3.org/2000/svg" viewBox="0 0 60 55" height="42" width="42" xmlns:v="https://vecta.io/nano"><path d="M56 2.5H4C2 2.5.3 4.1.3 6.2v35.3c0 2 1.6 3.7 3.7 3.7h17.6l-.7 5.7H18c-.5 0-.9.4-.9.9s.4.9.9.9h24.1c.5 0 .9-.4.9-.9s-.4-.9-.9-.9h-2.9l-.7-5.7H56c2 0 3.7-1.6 3.7-3.7V6.2C59.6 4.1 58 2.5 56 2.5zM22.6 50.8l.7-5.7h3.2l.3 1.3c.4 1.4 1.7 2.5 3.1 2.5s2.8-1 3.1-2.5l.3-1.3h3.2l.7 5.7H22.6zm5.7-5.7h3.3l-.2.8c-.2.7-.8 1.1-1.5 1.1s-1.3-.5-1.5-1.1l-.1-.8zm29.6-3.7h0c0 1.1-.9 1.9-1.9 1.9H4c-1.1 0-1.9-.9-1.9-1.9V6.2c0-1.1.9-2 1.9-2h52c1.1 0 1.9.9 1.9 1.9v35.3zM49.5 6.2H4.9c-.5 0-.9.4-.9.9v33.4c0 .5.4.9.9.9h1.9c.5 0 .9-.4.9-.9s-.4-.9-.9-.9h-1V7.9h43.7c.5 0 .9-.4.9-.9 0-.4-.4-.8-.9-.8zm5.6 0h-1.9c-.5 0-.9.4-.9.9s.4.9.9.9h1v31.7H10.5c-.5 0-.9.4-.9.9s.4.9.9.9h44.6c.5 0 .9-.4.9-.9V7.1c-.1-.5-.5-.9-.9-.9z" fill="#156ba3"/><path d="M41.8 15.8c-.2-.2-.4-.3-.6-.3l-20.4-.9c-.1-.4-.4-.7-.7-1l-2.5-1.7c-.4-.3-.9-.2-1.2.2s-.2.9.2 1.2L19 15l3.2 11.1c.1.3.3.7.5.9l-1.2 2.3c-.3.6-.3 1.2.1 1.7.1.2.3.4.4.5-.2.4-.4.9-.4 1.3a2.69 2.69 0 1 0 5.4 0c0-.3-.1-.7-.2-1h7.9c-.1.3-.2.6-.2 1a2.69 2.69 0 1 0 5.4 0c0-.4-.1-.8-.3-1.2.2-.2.3-.4.3-.6 0-.5-.4-.9-.9-.9H23V30l1.1-2.1c.2.1.4.1.7.1h.3l12.2-1.4c1.6-.2 2.8-1.4 3.2-2.9l1.5-7.3c0-.1 0-.4-.2-.6zm-4.4 16.3c.5 0 1 .4 1 1 0 .5-.4 1-1 1a.94.94 0 0 1-1-1c0-.6.5-1 1-1zm-13 0c.5 0 1 .4 1 1a.94.94 0 0 1-1 1 .94.94 0 0 1-1-1c0-.6.5-1 1-1zm-2.1-12l-1.1-3.8 3.5.2.6 3.7h-3v-.1zm2.7 6.4c-.5.1-.9-.2-1.1-.7l-1.1-3.9h2.8l.7 4.4-1.3.2zm5.1-.6l-2 .2-.7-4.2h2.7v4zm0-5.8h-3l-.6-3.6 3.6.2v3.4zm4.4 5.2l-2.7.3v-3.8h3l-.3 3.5zm.4-5.2h-3.1v-3.3l3.4.2-.3 3.1zm3.9 3.4c-.2.8-.8 1.4-1.7 1.5l-1 .1.3-3.3H39l-.2 1.7zm.7-3.4h-2.8L37 17l3.1.1-.6 3z" fill="#fa8503"/></svg>