<svg xmlns="http://www.w3.org/2000/svg" viewBox="0 0 100 98.6" width="61" height="60"><style>.a{fill:#156BA3;}</style><title>  custom software development</title><path d="M94.2 68.5c-1.3 0 1.1-0.3-34.8 8.6 -0.3-1-0.8-1.9-1.6-2.7L46.9 63.6c-1.3-1.3-3.1-2.1-5-2.1H20.4c-0.4-3.7-3.6-6.6-7.4-6.6H7.4C3.3 54.9 0 58.2 0 62.3v26.1c0 4.1 3.3 7.4 7.4 7.4h5.6c4.1 0 7.4-3.3 7.4-7.4v-2.6c3.6 0.8 7.8 0.8 13.4 3.6 11.2 5.5 11.6 5.5 13.6 6.8 4.9 3.2 11.3 3.2 16.2 0.1l28-14.2c0.7-0.4 1-1.3 0.6-2 -0.4-0.7-1.3-1-2-0.6 -29.2 14.8-28 14.2-28.2 14.3 -4 2.6-9.1 2.5-13.1 0 -2.2-1.4-2.9-1.6-13.9-7 -6.2-3-10.8-3.1-14.7-3.9V64.4h21.5c1.1 0 2.2 0.4 2.9 1.2L55.7 76.4c2.1 2.1 0.7 5.7-2.2 5.7 -0.9 0-1.7-0.3-2.3-1l-9.7-9.7c-0.6-0.6-1.5-0.6-2.1 0 -0.6 0.6-0.6 1.5 0 2.1l9.7 9.7c3.5 3.5 9.5 1.7 10.5-3.2l34.4-8.7c1.7-0.2 3.2 1.2 3.2 2.9 0 1.9-1.5 2.5-1.5 2.5 -0.7 0.4-1 1.3-0.6 2 0.4 0.7 1.3 1 2 0.6l0.3-0.2c1.5-0.7 2.8-2.7 2.8-5C100 71.1 97.4 68.5 94.2 68.5zM17.5 88.4c0 2.5-2 4.5-4.5 4.5H7.4c-2.5 0-4.5-2-4.5-4.5V62.3c0-2.5 2-4.5 4.5-4.5h5.6c2.2 0 4 1.6 4.4 3.7C17.5 62.1 17.5 88.4 17.5 88.4z" class="a"/><path d="M12.2 80.4c-0.7-0.3-1.6 0-1.9 0.8 -0.3 0.7 0 1.6 0.8 1.9 2 0.9 1.4 3.9-0.8 3.9 -1.4 0-2.4-1.4-2-2.7 0.2-0.8-0.2-1.6-1-1.8 -0.8-0.2-1.6 0.2-1.8 1 -1 3.2 1.4 6.5 4.8 6.5 2.8 0 5-2.2 5-5C15.2 83 14 81.2 12.2 80.4z" class="a"/><path d="M17 37.7c0.8-0.2 1.3-0.9 1.1-1.7 -0.7-3.5 2-6.7 5.5-6.7 0.8 0 1.5-0.7 1.5-1.5v-3.7c0-1.5 1.2-2.7 2.7-2.7h3.7c0.8 0 1.5-0.7 1.5-1.5 0 0 0 0 0 0 0-3.1 2.5-5.6 5.6-5.6 3.1 0 5.6 2.5 5.6 5.6v0c0 0.8 0.7 1.5 1.5 1.5h3.7c1.5 0 2.7 1.2 2.7 2.7v2.4c-2.5 0.4-4.8 2-6.1 4.4 0 0 0 0.1-0.1 0.1 -0.6 1.2-0.9 2.5-0.9 3.8 0 1 0.2 1.9 0.5 2.7 0 0.1 0 0.1 0 0.1 1 2.9 3.6 5 6.6 5.5v2.4c0 1.5-1.2 2.7-2.7 2.7h-2.4c-0.7-4-4.2-7.1-8.4-7.1 -4.2 0-7.7 3.1-8.4 7.1h-2.4c-1.5 0-2.7-1.2-2.7-2.7v-3.7c0-0.8-0.7-1.5-1.5-1.5 -1 0-2-0.3-2.9-0.8 -0.7-0.4-1.6-0.2-2 0.5 -0.4 0.7-0.2 1.6 0.5 2 0.9 0.5 1.9 0.9 2.9 1.1v2.4c0 3.1 2.5 5.6 5.6 5.6h3.7c0.8 0 1.5-0.7 1.5-1.5 0-3.1 2.5-5.6 5.6-5.6 3.1 0 5.6 2.5 5.6 5.6 0 0.8 0.7 1.5 1.5 1.5h3.7c1.7 0 3.1-0.7 4.2-1.8 1 1.1 2.5 1.8 4.2 1.8h3.7c0.8 0 1.5-0.7 1.5-1.5 0-3.1 2.5-5.6 5.6-5.6 3.1 0 5.6 2.5 5.6 5.6 0 0.8 0.7 1.5 1.5 1.5h3.7c3.1 0 5.6-2.5 5.6-5.6v-3.7c0-0.8-0.7-1.5-1.5-1.5 -3.1 0-5.6-2.5-5.6-5.6 0-3.1 2.5-5.6 5.6-5.6h0c0.8 0 1.5-0.7 1.5-1.5v-3.7c0-3.1-2.5-5.6-5.6-5.6h-3.7c-0.8 0-1.5 0.7-1.5 1.5 0 3.1-2.5 5.6-5.6 5.6 -3.1 0-5.6-2.5-5.6-5.6 0-0.8-0.7-1.5-1.5-1.5h-3.7c-1.6 0-3.1 0.7-4.2 1.8 -1-1.1-2.5-1.8-4.2-1.8h-2.4c-0.7-4-4.2-7.1-8.4-7.1 -4.2 0-7.7 3.1-8.4 7.1h-2.4c-3.1 0-5.6 2.5-5.6 5.6v2.4c-4.7 0.8-7.9 5.4-6.9 10.1C15.4 37.3 16.2 37.8 17 37.7zM53.5 29.2c0.8 0 1.5-0.7 1.5-1.5v-3.7c0-1.5 1.2-2.7 2.7-2.7h2.4c0.7 4 4.2 7.1 8.4 7.1 4.2 0 7.7-3.1 8.4-7.1h2.4c1.5 0 2.7 1.2 2.7 2.7v2.4c-4 0.7-7.1 4.2-7.1 8.4s3.1 7.7 7.1 8.4v2.4c0 1.5-1.2 2.7-2.7 2.7h-2.4c-0.7-4-4.2-7.1-8.4-7.1 -4.2 0-7.7 3.1-8.4 7.1h-2.4c-1.5 0-2.7-1.2-2.7-2.7 0-2.3 0-1.4 0-3.7 0-0.8-0.6-1.5-1.5-1.5 -1.2 0-2.4-0.4-3.4-1.1C45.9 36 48.2 29.2 53.5 29.2z" fill="#FA8503"/><path d="M48.5 57.8v3.8c0 0.8 0.7 1.5 1.5 1.5 0.8 0 1.5-0.7 1.5-1.5v-3.8c0-0.8-0.7-1.5-1.5-1.5C49.2 56.4 48.5 57 48.5 57.8z" class="a"/><path d="M50 6.7c0.8 0 1.5-0.7 1.5-1.5V1.5C51.5 0.7 50.8 0 50 0c-0.8 0-1.5 0.7-1.5 1.5v3.8C48.5 6 49.2 6.7 50 6.7z" class="a"/><path d="M6.6 28h3.8c0.8 0 1.5-0.7 1.5-1.5 0-0.8-0.7-1.5-1.5-1.5H6.6c-0.8 0-1.5 0.7-1.5 1.5C5.1 27.3 5.8 28 6.6 28z" class="a"/><path d="M18.3 7.3c2.7 2.2 2.9 2.8 3.8 2.8 1.4 0 2-1.7 0.9-2.6l-2.9-2.4c-0.6-0.5-1.5-0.4-2.1 0.2C17.6 5.9 17.7 6.8 18.3 7.3z" class="a"/><path d="M10.6 50.4c0.5 0 0.5-0.1 4-1.5 0.8-0.3 1.1-1.2 0.8-1.9 -0.3-0.8-1.2-1.1-1.9-0.8l-3.5 1.4C8.6 48.2 9 50.4 10.6 50.4z" class="a"/><path d="M92.3 29.9h3.8c0.8 0 1.5-0.7 1.5-1.5 0-0.8-0.7-1.5-1.5-1.5h-3.8c-0.8 0-1.5 0.7-1.5 1.5C90.8 29.2 91.4 29.9 92.3 29.9z" class="a"/><path d="M85.4 56.4l2.9 2.4c0.6 0.5 1.6 0.4 2.1-0.2 0.5-0.6 0.4-1.5-0.2-2.1l-2.9-2.4c-0.6-0.5-1.5-0.4-2.1 0.2C84.7 54.9 84.8 55.8 85.4 56.4z" class="a"/><path d="M76.7 8.8l3-2.3c0.6-0.5 0.8-1.4 0.3-2.1 -0.5-0.6-1.4-0.8-2.1-0.3l-3 2.3c-0.6 0.5-0.8 1.4-0.3 2.1C75.2 9.2 76.1 9.3 76.7 8.8z" class="a"/></svg>