<svg width="48" height="18" viewBox="0 0 48 18" fill="none" xmlns="http://www.w3.org/2000/svg">
<path d="M26.808 0.199999L21.24 17H17.928L13.776 4.568L9.552 17H6.216L0.648 0.199999H3.888L8.064 12.968L12.408 0.199999H15.288L19.536 13.04L23.832 0.199999H26.808ZM41.4498 14.384V17H28.8498V0.199999H41.1138V2.816H31.9698V7.184H40.0818V9.752H31.9698V14.384H41.4498ZM45.3343 17.168C44.7903 17.168 44.3263 16.984 43.9423 16.616C43.5583 16.232 43.3663 15.752 43.3663 15.176C43.3663 14.584 43.5503 14.104 43.9183 13.736C44.3023 13.368 44.7743 13.184 45.3343 13.184C45.8943 13.184 46.3583 13.368 46.7263 13.736C47.1103 14.104 47.3023 14.584 47.3023 15.176C47.3023 15.752 47.1103 16.232 46.7263 16.616C46.3423 16.984 45.8783 17.168 45.3343 17.168Z" fill="#FF9D00"/>
</svg>
